<svg width="48" height="48" viewBox="0 0 48 48" fill="none" xmlns="http://www.w3.org/2000/svg">
<path d="M0 24C0 33.2208 0 39.312 4.34183 43.68C8.68366 48.048 14.7718 48 24.012 48C33.2522 48 39.3163 48 43.6821 43.68C48.048 39.36 48 33.2448 48 24.024C48 14.8032 48 8.712 43.6821 4.368C39.3643 0.0240001 33.2042 0 23.988 0C14.7718 0 8.68366 0 4.34183 4.344C0 8.688 0 14.7792 0 24Z" fill="#F0EDEE"/>
<g clip-path="url(#clip0)">
<path d="M30 17.6248C30 20.9385 27.3137 23.6248 24 23.6248C20.6863 23.6248 18 20.9385 18 17.6248C18 14.3111 20.8738 14.9998 24.1875 14.9998C27.5012 14.9998 30 14.3111 30 17.6248Z" fill="white"/>
<path d="M17.625 36.5623V27.5623L27 27.3748C28.75 27.3123 32.5125 27.2248 33.5625 27.3748C34.6125 27.5248 36.125 30.1873 36.75 31.4998V36.5623H17.625Z" fill="white"/>
<path d="M31.9629 26.4258H16.0371C12.9839 26.4258 10.5 28.9097 10.5 31.9629V37.5H37.5V31.9629C37.5 28.9097 35.0161 26.4258 31.9629 26.4258ZM12.082 31.9629C12.082 29.782 13.8563 28.0078 16.0371 28.0078H16.8281V35.918H12.082V31.9629ZM35.918 35.918H18.4102V28.0078H31.9629C34.1437 28.0078 35.918 29.782 35.918 31.9629V35.918Z" fill="#010922"/>
<path d="M28.625 32.75H29.5V33.625C29.5 34.1082 29.8918 34.5 30.375 34.5C30.8582 34.5 31.25 34.1082 31.25 33.625V32.75H32.125C32.6082 32.75 33 32.3582 33 31.875C33 31.3918 32.6082 31 32.125 31H31.25V30.125C31.25 29.6418 30.8582 29.25 30.375 29.25C29.8918 29.25 29.5 29.6418 29.5 30.125V31H28.625C28.1418 31 27.75 31.3918 27.75 31.875C27.75 32.3582 28.1418 32.75 28.625 32.75Z" fill="#052DB8"/>
<path d="M24 24.8438C27.9545 24.8438 31.1719 21.6265 31.1719 17.6719C31.1719 13.7172 27.9545 10.5 24 10.5C20.0455 10.5 16.8281 13.7172 16.8281 17.6719C16.8281 21.6265 20.0455 24.8438 24 24.8438ZM24 12.082C25.8857 12.082 27.5561 13.0207 28.5689 14.4551H19.4311C20.4439 13.0207 22.1143 12.082 24 12.082ZM18.6543 16.0371H29.3457C29.5044 16.5544 29.5898 17.1033 29.5898 17.6719C29.5898 20.7542 27.0823 23.2617 24 23.2617C20.9179 23.2617 18.4102 20.7542 18.4102 17.6719C18.4102 17.1033 18.4956 16.5544 18.6543 16.0371V16.0371Z" fill="#010922"/>
</g>
<defs>
<clipPath id="clip0">
<rect width="27" height="27" fill="white" transform="translate(10.5 10.5)"/>
</clipPath>
</defs>
</svg>
