<svg width="151" height="56" viewBox="0 0 151 56" fill="none" xmlns="http://www.w3.org/2000/svg">
<path d="M60.8794 19.4245V27.5523H67.8032V43.3564C67.8032 45.3131 68.101 47.044 68.6966 48.5492C69.2922 50.1296 70.1111 51.4842 71.2279 52.5378C72.2702 53.6667 73.6103 54.4945 75.0993 55.0966C76.5883 55.6986 78.1517 55.9997 79.9385 55.9997C81.5019 55.9997 83.0654 55.8492 84.5544 55.3976C86.0434 54.9461 87.309 54.4193 88.3513 53.6667L85.0755 46.2914C84.5544 46.6677 83.9588 46.9688 83.3632 47.1945C82.6931 47.4956 82.0231 47.5708 81.2786 47.5708C80.683 47.5708 80.1618 47.4956 79.6407 47.3451C79.0451 47.1945 78.5984 46.8935 78.1517 46.442C77.705 45.9904 77.4072 45.4636 77.1094 44.711C76.8116 43.9585 76.7372 43.0554 76.7372 41.9265V27.5523H87.3834V19.4245H76.7372V8.8132H67.8032V19.4245H60.8794Z" fill="white"/>
<path d="M90.9582 7.91011C90.9582 9.56578 91.4793 10.9957 92.6705 12.1245C93.7873 13.3287 95.2018 13.8555 96.8397 13.8555C98.4776 13.8555 99.8177 13.3287 101.009 12.1245C102.126 10.9957 102.721 9.56578 102.721 7.91011C102.721 6.25445 102.126 4.89981 101.009 3.69569C99.8177 2.56683 98.4776 1.96477 96.8397 1.96477C95.2018 1.96477 93.7873 2.56683 92.6705 3.69569C91.4793 4.89981 90.9582 6.25445 90.9582 7.91011ZM92.3727 19.4245V55.0966H101.307V19.4245H92.3727Z" fill="white"/>
<path d="M108.627 0.482422V55.0966H117.561V0.482422H108.627Z" fill="white"/>
<path d="M124.453 0.482422V55.0966H133.387V0.482422H124.453Z" fill="white"/>
<path d="M139.237 7.91011C139.237 9.56578 139.758 10.9957 140.949 12.1245C142.066 13.3287 143.481 13.8555 145.119 13.8555C146.756 13.8555 148.096 13.3287 149.288 12.1245C150.404 10.9957 151 9.56578 151 7.91011C151 6.25445 150.404 4.89981 149.288 3.69569C148.096 2.56683 146.756 1.96477 145.119 1.96477C143.481 1.96477 142.066 2.56683 140.949 3.69569C139.758 4.89981 139.237 6.25445 139.237 7.91011ZM140.652 19.4245V55.0966H149.585V19.4245H140.652Z" fill="white"/>
<path d="M0.703854 10.0944C0 12.2949 0 15.014 0 20.4522V28.2435C0 33.6817 0 36.4007 0.703854 38.6013C2.12639 43.0487 5.55889 46.5356 9.93699 47.9806C12.1032 48.6956 14.7799 48.6956 20.1333 48.6956H41.3997L47.9365 56V20.4522C47.9365 15.014 47.9365 12.2949 47.2327 10.0944C45.8101 5.64692 42.3776 2.16006 37.9995 0.715C35.8333 0 33.1566 0 27.8032 0H20.1333C14.7799 0 12.1032 0 9.93699 0.715C5.55889 2.16006 2.12639 5.64692 0.703854 10.0944Z" fill="#DD2D4A"/>
<path d="M19.1747 10.8593C19.1747 10.2407 19.6681 9.73926 20.2767 9.73926H27.66C28.2686 9.73926 28.762 10.2407 28.762 10.8593V29.2175H19.1747V10.8593Z" fill="white"/>
<path d="M9.5874 20.5984C9.5874 19.9798 10.0808 19.4784 10.6894 19.4784H19.1747L19.1747 29.2175H10.6894C10.0808 29.2175 9.5874 28.7161 9.5874 28.0975V20.5984Z" fill="white"/>
<path d="M28.762 19.4784H37.2473C37.8559 19.4784 38.3493 19.9798 38.3493 20.5984V28.0975C38.3493 28.7161 37.8559 29.2175 37.2473 29.2175H28.762L28.762 19.4784Z" fill="white"/>
<path d="M23.9684 29.2178H19.1748V36.7169C19.1748 37.954 20.1616 38.9569 21.3788 38.9569H28.7621V34.5743L23.9684 29.2178Z" fill="#FDD9DF"/>
</svg>
