<svg width="94" height="34" viewBox="0 0 94 34" fill="none" xmlns="http://www.w3.org/2000/svg">
<path d="M37.8984 11.7935V16.7283H42.2086V26.3236C42.2086 27.5116 42.394 28.5625 42.7648 29.4764C43.1355 30.4359 43.6454 31.2583 44.3405 31.898C44.9894 32.5834 45.8236 33.086 46.7505 33.4516C47.6775 33.8171 48.6507 33.9999 49.763 33.9999C50.7363 33.9999 51.7096 33.9085 52.6365 33.6343C53.5634 33.3602 54.3513 33.0403 55.0001 32.5834L52.9609 28.1056C52.6365 28.3341 52.2657 28.5168 51.895 28.6539C51.4778 28.8367 51.0607 28.8824 50.5973 28.8824C50.2265 28.8824 49.9021 28.8367 49.5777 28.7453C49.2069 28.6539 48.9288 28.4711 48.6507 28.197C48.3727 27.9228 48.1873 27.603 48.0019 27.1461C47.8165 26.6891 47.7702 26.1408 47.7702 25.4555V16.7283H54.3976V11.7935H47.7702V5.35094H42.2086V11.7935H37.8984Z" fill="#010922"/>
<path d="M56.623 4.80264C56.623 5.80786 56.9474 6.67601 57.6889 7.36139C58.3841 8.09247 59.2647 8.41231 60.2843 8.41231C61.3039 8.41231 62.1382 8.09247 62.8797 7.36139C63.5749 6.67601 63.9457 5.80786 63.9457 4.80264C63.9457 3.79741 63.5749 2.97495 62.8797 2.24388C62.1382 1.5585 61.3039 1.19296 60.2843 1.19296C59.2647 1.19296 58.3841 1.5585 57.6889 2.24388C56.9474 2.97495 56.623 3.79741 56.623 4.80264ZM57.5036 11.7935V33.4516H63.0651V11.7935H57.5036Z" fill="#010922"/>
<path d="M67.6219 0.292969V33.4516H73.1834V0.292969H67.6219Z" fill="#010922"/>
<path d="M77.474 0.292969V33.4516H83.0355V0.292969H77.474Z" fill="#010922"/>
<path d="M86.6773 4.80264C86.6773 5.80786 87.0018 6.67601 87.7433 7.36139C88.4385 8.09247 89.3191 8.41231 90.3387 8.41231C91.3583 8.41231 92.1925 8.09247 92.9341 7.36139C93.6293 6.67601 94 5.80786 94 4.80264C94 3.79741 93.6293 2.97495 92.9341 2.24388C92.1925 1.5585 91.3583 1.19296 90.3387 1.19296C89.3191 1.19296 88.4385 1.5585 87.7433 2.24388C87.0018 2.97495 86.6773 3.79741 86.6773 4.80264ZM87.5579 11.7935V33.4516H93.1194V11.7935H87.5579Z" fill="#010922"/>
<path d="M0.438161 6.12872C0 7.46476 0 9.11564 0 12.4174V17.1478C0 20.4496 0 22.1005 0.438161 23.4365C1.32371 26.1367 3.4605 28.2537 6.18594 29.1311C7.53446 29.5652 9.20075 29.5652 12.5333 29.5652H25.772L29.8413 34V12.4174C29.8413 9.11564 29.8413 7.46476 29.4031 6.12872C28.5176 3.42849 26.3808 1.31147 23.6553 0.434107C22.3068 0 20.6405 0 17.3079 0H12.5333C9.20075 0 7.53446 0 6.18594 0.434107C3.4605 1.31147 1.32371 3.42849 0.438161 6.12872Z" fill="#DD2D4A"/>
<path d="M11.9365 6.59309C11.9365 6.21753 12.2437 5.91309 12.6225 5.91309H17.2188C17.5976 5.91309 17.9048 6.21753 17.9048 6.59309V17.7392H11.9365V6.59309Z" fill="white"/>
<path d="M5.96826 12.5061C5.96826 12.1306 6.2754 11.8261 6.65427 11.8261H11.9365L11.9365 17.7392H6.65427C6.2754 17.7392 5.96826 17.4347 5.96826 17.0592V12.5061Z" fill="white"/>
<path d="M17.9048 11.8261H23.187C23.5659 11.8261 23.873 12.1306 23.873 12.5061V17.0592C23.873 17.4347 23.5659 17.7392 23.187 17.7392H17.9048L17.9048 11.8261Z" fill="white"/>
<path d="M14.9206 17.7393H11.9365V22.2923C11.9365 23.0434 12.5508 23.6523 13.3085 23.6523H17.9048V20.9914L14.9206 17.7393Z" fill="#FDD9DF"/>
</svg>
