<svg width="315" height="116" viewBox="0 0 315 116" fill="none" xmlns="http://www.w3.org/2000/svg">
<path d="M127 40.2372V57.0734H141.444V89.8104C141.444 93.8635 142.065 97.449 143.307 100.567C144.55 103.841 146.258 106.647 148.588 108.829C150.762 111.167 153.558 112.882 156.664 114.129C159.77 115.376 163.032 116 166.759 116C170.021 116 173.282 115.688 176.388 114.753C179.494 113.818 182.135 112.726 184.309 111.167L177.475 95.8901C176.388 96.6696 175.146 97.2931 173.903 97.7608C172.505 98.3844 171.108 98.5403 169.555 98.5403C168.312 98.5403 167.225 98.3844 166.138 98.0726C164.895 97.7608 163.963 97.1372 163.032 96.2019C162.1 95.2665 161.479 94.1753 160.857 92.6164C160.236 91.0575 160.081 89.1868 160.081 86.8485V57.0734H182.29V40.2372H160.081V18.2566H141.444V40.2372H127Z" fill="#010922"/>
<path d="M189.747 16.3859C189.747 19.8155 190.834 22.7774 193.319 25.1158C195.649 27.6101 198.6 28.7013 202.017 28.7013C205.433 28.7013 208.229 27.6101 210.714 25.1158C213.043 22.7774 214.286 19.8155 214.286 16.3859C214.286 12.9563 213.043 10.1503 210.714 7.65606C208.229 5.3177 205.433 4.07057 202.017 4.07057C198.6 4.07057 195.649 5.3177 193.319 7.65606C190.834 10.1503 189.747 12.9563 189.747 16.3859ZM192.698 40.2372V114.129H211.335V40.2372H192.698Z" fill="#010922"/>
<path d="M226.605 1V114.129H245.242V1H226.605Z" fill="#010922"/>
<path d="M259.62 1V114.129H278.257V1H259.62Z" fill="#010922"/>
<path d="M290.461 16.3859C290.461 19.8155 291.548 22.7774 294.033 25.1158C296.363 27.6101 299.314 28.7013 302.731 28.7013C306.147 28.7013 308.943 27.6101 311.428 25.1158C313.758 22.7774 315 19.8155 315 16.3859C315 12.9563 313.758 10.1503 311.428 7.65606C308.943 5.3177 306.147 4.07057 302.731 4.07057C299.314 4.07057 296.363 5.3177 294.033 7.65606C291.548 10.1503 290.461 12.9563 290.461 16.3859ZM293.412 40.2372V114.129H312.049V40.2372H293.412Z" fill="#010922"/>
<path d="M1.4683 20.9097C0 25.468 0 31.1004 0 42.3652V58.5044C0 69.7691 0 75.4016 1.4683 79.9598C4.43584 89.1724 11.5964 96.3951 20.7295 99.3885C25.2485 100.87 30.8323 100.87 42 100.87H86.3636L100 116V42.3652C100 31.1004 100 25.468 98.5317 20.9097C95.5642 11.6972 88.4036 4.47441 79.2705 1.48107C74.7515 0 69.1677 0 58 0H42C30.8323 0 25.2485 0 20.7295 1.48107C11.5964 4.47441 4.43584 11.6972 1.4683 20.9097Z" fill="#DD2D4A"/>
<path d="M40 22.4939C40 21.2126 41.0292 20.1739 42.2989 20.1739H57.7012C58.9708 20.1739 60 21.2126 60 22.4939V60.5218H40V22.4939Z" fill="white"/>
<path d="M20 42.6679C20 41.3866 21.0292 40.3479 22.2989 40.3479H40L40 60.5218H22.2988C21.0292 60.5218 20 59.4831 20 58.2018V42.6679Z" fill="white"/>
<path d="M60 40.3479H77.7012C78.9708 40.3479 80 41.3866 80 42.6679V58.2018C80 59.4831 78.9708 60.5218 77.7012 60.5218H60L60 40.3479Z" fill="white"/>
<path d="M50 60.5217H40V76.0556C40 78.6183 42.0585 80.6957 44.5977 80.6957H60V71.6174L50 60.5217Z" fill="#FDD9DF"/>
</svg>
