<svg width="48" height="48" viewBox="0 0 48 48" fill="none" xmlns="http://www.w3.org/2000/svg">
<path d="M0 24C0 33.2208 0 39.312 4.34183 43.68C8.68366 48.048 14.7718 48 24.012 48C33.2522 48 39.3163 48 43.6821 43.68C48.048 39.36 48 33.2448 48 24.024C48 14.8032 48 8.712 43.6821 4.368C39.3643 0.0240001 33.2042 0 23.988 0C14.7718 0 8.68366 0 4.34183 4.344C0 8.688 0 14.7792 0 24Z" fill="#F0EDEE"/>
<g clip-path="url(#clip0)">
<path d="M11.6407 24.9515V13.5431L12.7815 12.9727H27.4224L28.5632 13.9234V24.7614L27.6125 25.522L19.0562 25.7121L14.4928 27.9938L14.3027 25.3318L11.6407 24.9515Z" fill="white"/>
<path d="M35.127 18.4629H29.5899V14.5078C29.5899 13.1993 28.5253 12.1348 27.2168 12.1348H12.8731C11.5646 12.1348 10.5 13.1993 10.5 14.5078V24C10.5 25.3085 11.5646 26.3731 12.8731 26.3731H13.6641V28.7461C13.6641 29.3796 14.3717 29.7524 14.8938 29.4043L18.4102 27.0601V30.3282C18.4102 31.6367 19.4747 32.7012 20.7832 32.7012H28.5593L33.1062 35.7324C33.6291 36.0811 34.3359 35.7079 34.3359 35.0743V32.7012H35.1269C36.4354 32.7012 37.5 31.6367 37.5 30.3282V20.836C37.5001 19.5275 36.4355 18.4629 35.127 18.4629ZM18.7602 24.9254C18.7595 24.9259 18.7587 24.9264 18.758 24.9268L15.2461 27.2681V25.5821C15.2461 25.1452 14.8919 24.791 14.4551 24.791H12.8731C12.4369 24.791 12.082 24.4362 12.082 24V14.5078C12.082 14.0717 12.4369 13.7168 12.8731 13.7168H27.2168C27.653 13.7168 28.0078 14.0717 28.0078 14.5078V24C28.0078 24.4362 27.653 24.791 27.2168 24.791H19.2012C19.0481 24.791 18.8899 24.8384 18.7602 24.9254ZM35.918 30.3282C35.918 30.7643 35.5632 31.1192 35.127 31.1192H33.545C33.1081 31.1192 32.7539 31.4733 32.7539 31.9102V33.5962L29.2376 31.252C29.1077 31.1654 28.955 31.1192 28.7989 31.1192H20.7832C20.3471 31.1192 19.9922 30.7643 19.9922 30.3282V26.3731H27.2168C28.5253 26.3731 29.5899 25.3085 29.5899 24V20.0449H35.127C35.5632 20.0449 35.918 20.3998 35.918 20.836V30.3282Z" fill="#010922"/>
<path d="M20.7832 20.0449H14.4551C14.0182 20.0449 13.6641 20.3991 13.6641 20.8359C13.6641 21.2728 14.0182 21.627 14.4551 21.627H20.7832C21.2201 21.627 21.5743 21.2728 21.5743 20.8359C21.5743 20.3991 21.2201 20.0449 20.7832 20.0449Z" fill="#052DB8"/>
<path d="M25.6348 16.8809H14.4551C14.0182 16.8809 13.6641 17.235 13.6641 17.6719C13.6641 18.1087 14.0182 18.4629 14.4551 18.4629H25.6348C26.0717 18.4629 26.4258 18.1087 26.4258 17.6719C26.4258 17.235 26.0717 16.8809 25.6348 16.8809Z" fill="#052DB8"/>
</g>
<defs>
<clipPath id="clip0">
<rect width="27" height="27" fill="white" transform="translate(10.5 10.5)"/>
</clipPath>
</defs>
</svg>
