<svg width="48" height="48" viewBox="0 0 48 48" fill="none" xmlns="http://www.w3.org/2000/svg">
<path d="M0 24C0 33.2208 0 39.312 4.34183 43.68C8.68366 48.048 14.7718 48 24.012 48C33.2522 48 39.3163 48 43.6821 43.68C48.048 39.36 48 33.2448 48 24.024C48 14.8032 48 8.712 43.6821 4.368C39.3643 0.0240001 33.2042 0 23.988 0C14.7718 0 8.68366 0 4.34183 4.344C0 8.688 0 14.7792 0 24Z" fill="#F0EDEE"/>
<g clip-path="url(#clip0)">
<path fill-rule="evenodd" clip-rule="evenodd" d="M32.7539 37.5H12.9785C12.5417 37.5 12.1875 37.1458 12.1875 36.709V14.5078C12.1875 12.3211 13.9563 10.5 16.1426 10.5H31.9629C34.1496 10.5 35.918 12.3216 35.918 14.5078V19.2539C35.918 19.6908 35.5638 20.0449 35.1269 20.0449H29.5898V31.1191H32.7539C34.4986 31.1191 35.918 32.5385 35.918 34.2832C35.918 36.0175 34.5164 37.5 32.7539 37.5ZM26.4258 34.2832C26.4258 35.1693 27.1502 35.918 28.0078 35.918H29.5898V32.7012H28.0078C27.1355 32.7012 26.4258 33.4109 26.4258 34.2832ZM32.7539 35.918C33.6115 35.918 34.3359 35.1693 34.3359 34.2832C34.3359 33.4109 33.6262 32.7012 32.7539 32.7012H31.1719V35.918H32.7539ZM34.3359 18.4629V14.5078C34.3359 13.1929 33.2492 12.082 31.9629 12.082C30.6765 12.082 29.5898 13.1929 29.5898 14.5078V18.4629H34.3359Z" fill="white"/>
<path d="M12.9785 37.5H32.7539C34.5164 37.5 35.918 36.0175 35.918 34.2832C35.918 32.5385 34.4986 31.1191 32.7539 31.1191H29.5898V20.0449H35.1269C35.5638 20.0449 35.918 19.6908 35.918 19.2539V14.5078C35.918 12.3216 34.1496 10.5 31.9629 10.5H16.1426C13.9563 10.5 12.1875 12.3211 12.1875 14.5078V36.709C12.1875 37.1458 12.5417 37.5 12.9785 37.5ZM28.0078 35.918C27.1502 35.918 26.4258 35.1693 26.4258 34.2832C26.4258 33.4109 27.1355 32.7012 28.0078 32.7012H29.5898V35.918C29.0366 35.918 28.5611 35.918 28.0078 35.918ZM34.3359 34.2832C34.3359 35.1693 33.6115 35.918 32.7539 35.918H31.1719V32.7012H32.7539C33.6262 32.7012 34.3359 33.4109 34.3359 34.2832ZM34.3359 14.5078V18.4629H29.5898V14.5078C29.5898 13.1929 30.6765 12.082 31.9629 12.082C33.2492 12.082 34.3359 13.1929 34.3359 14.5078ZM13.7695 14.5078C13.7695 13.1929 14.8562 12.082 16.1426 12.0815H28.8243C28.2954 12.7796 28.0078 13.6238 28.0078 14.5078V31.1191C26.2631 31.1191 24.8437 32.5385 24.8437 34.2832C24.8437 34.8646 24.9986 35.4256 25.2887 35.918H13.7695V14.5078Z" fill="#010922"/>
<path d="M16.0898 21.627C16.5267 21.627 16.8809 21.2728 16.8809 20.8359C16.8809 20.3991 16.5267 20.0449 16.0898 20.0449C15.653 20.0449 15.2988 20.3991 15.2988 20.8359C15.2988 21.2728 15.653 21.627 16.0898 21.627Z" fill="#010922"/>
<path d="M19.2539 21.627H25.582C26.0189 21.627 26.373 21.2728 26.373 20.8359C26.373 20.3991 26.0189 20.0449 25.582 20.0449H19.2539C18.817 20.0449 18.4629 20.3991 18.4629 20.8359C18.4629 21.2728 18.817 21.627 19.2539 21.627Z" fill="#010922"/>
<path d="M16.0898 24.791C16.5267 24.791 16.8809 24.4369 16.8809 24C16.8809 23.5631 16.5267 23.209 16.0898 23.209C15.653 23.209 15.2988 23.5631 15.2988 24C15.2988 24.4369 15.653 24.791 16.0898 24.791Z" fill="#010922"/>
<path d="M19.2539 24.791H25.582C26.0189 24.791 26.373 24.4369 26.373 24C26.373 23.5631 26.0189 23.209 25.582 23.209H19.2539C18.817 23.209 18.4629 23.5631 18.4629 24C18.4629 24.4369 18.817 24.791 19.2539 24.791Z" fill="#010922"/>
<path d="M16.0898 27.9551C16.5267 27.9551 16.8809 27.6009 16.8809 27.1641C16.8809 26.7272 16.5267 26.373 16.0898 26.373C15.653 26.373 15.2988 26.7272 15.2988 27.1641C15.2988 27.6009 15.653 27.9551 16.0898 27.9551Z" fill="#010922"/>
<path d="M19.2539 27.9551H25.582C26.0189 27.9551 26.373 27.6009 26.373 27.1641C26.373 26.7272 26.0189 26.373 25.582 26.373H19.2539C18.817 26.373 18.4629 26.7272 18.4629 27.1641C18.4629 27.6009 18.817 27.9551 19.2539 27.9551Z" fill="#010922"/>
<path d="M16.0898 31.1191C16.5267 31.1191 16.8809 30.765 16.8809 30.3281C16.8809 29.8913 16.5267 29.5371 16.0898 29.5371C15.653 29.5371 15.2988 29.8913 15.2988 30.3281C15.2988 30.765 15.653 31.1191 16.0898 31.1191Z" fill="#010922"/>
<path d="M26.373 30.3281C26.373 29.8913 26.0189 29.5371 25.582 29.5371H19.2539C18.817 29.5371 18.4629 29.8913 18.4629 30.3281C18.4629 30.765 18.817 31.1191 19.2539 31.1191H25.582C26.0189 31.1191 26.373 30.765 26.373 30.3281Z" fill="#010922"/>
<path d="M19.2539 16.8809H20.0449V17.6719C20.0449 18.1087 20.3991 18.4629 20.8359 18.4629C21.2728 18.4629 21.6269 18.1087 21.6269 17.6719V16.8809H22.4179C22.8548 16.8809 23.209 16.5267 23.209 16.0898C23.209 15.653 22.8548 15.2988 22.4179 15.2988H21.6269V14.5078C21.6269 14.071 21.2728 13.7168 20.8359 13.7168C20.3991 13.7168 20.0449 14.071 20.0449 14.5078V15.2988H19.2539C18.817 15.2988 18.4629 15.653 18.4629 16.0898C18.4629 16.5267 18.817 16.8809 19.2539 16.8809Z" fill="#052DB8"/>
</g>
<defs>
<clipPath id="clip0">
<rect width="27" height="27" fill="white" transform="translate(10.5 10.5)"/>
</clipPath>
</defs>
</svg>
