<svg width="189" height="75" viewBox="0 0 189 75" fill="none" xmlns="http://www.w3.org/2000/svg">
<path d="M117.66 60.8905C113.76 60.8905 110.877 59.7654 109.011 57.5153C107.144 55.2651 106.21 52.14 106.21 48.1397V37.2641H102.103V29.2636L106.833 28.8886L108.077 20.7631H116.913V28.8886H124.007V37.2641H116.913V47.9522C116.913 49.5773 117.245 50.744 117.909 51.4524C118.614 52.1608 119.527 52.515 120.647 52.515C121.476 52.515 122.389 52.3483 123.385 52.0149L125.003 59.7654C122.597 60.5155 120.149 60.8905 117.66 60.8905Z" fill="#010922"/>
<path d="M128.512 28.8886H139.214V60.8905H128.512V28.8886ZM133.863 25.0133C132.204 25.0133 130.835 24.5133 129.756 23.5132C128.678 22.5132 128.138 21.2214 128.138 19.638C128.138 18.0546 128.678 16.7628 129.756 15.7628C130.835 14.7627 132.204 14.2627 133.863 14.2627C135.522 14.2627 136.891 14.7627 137.97 15.7628C139.049 16.7628 139.588 18.0546 139.588 19.638C139.588 21.2214 139.049 22.5132 137.97 23.5132C136.891 24.5133 135.522 25.0133 133.863 25.0133Z" fill="#010922"/>
<path d="M152.927 60.8905C149.484 60.8905 147.016 59.8696 145.523 57.8278C144.071 55.786 143.345 52.89 143.345 49.1398V21.7231H154.047V49.5148C154.047 50.4732 154.213 51.1816 154.545 51.6399C154.919 52.0566 155.333 52.265 155.79 52.265C156.205 52.265 156.578 52.2233 156.91 52.14L158.154 60.0154C156.868 60.5988 155.126 60.8905 152.927 60.8905Z" fill="#010922"/>
<path d="M170.217 60.8905C166.774 60.8905 164.306 59.8696 162.812 57.8278C161.36 55.786 160.634 52.89 160.634 49.1398V21.7231H171.337V49.5148C171.337 50.4732 171.503 51.1816 171.835 51.6399C172.208 52.0566 172.623 52.265 173.079 52.265C173.494 52.265 173.868 52.2233 174.199 52.14L175.444 60.0154C174.158 60.5988 172.416 60.8905 170.217 60.8905Z" fill="#010922"/>
<path d="M177.924 28.8886H188.627V60.8905H177.924V28.8886ZM183.275 25.0133C181.616 25.0133 180.247 24.5133 179.168 23.5132C178.09 22.5132 177.55 21.2214 177.55 19.638C177.55 18.0546 178.09 16.7628 179.168 15.7628C180.247 14.7627 181.616 14.2627 183.275 14.2627C184.935 14.2627 186.304 14.7627 187.382 15.7628C188.461 16.7628 189 18.0546 189 19.638C189 21.2214 188.461 22.5132 187.382 23.5132C186.304 24.5133 184.935 25.0133 183.275 25.0133Z" fill="#010922"/>
<path d="M0 37.5C0 51.9075 0 61.425 6.71659 68.25C13.4332 75.075 22.8513 75 37.1454 75C51.4394 75 60.8204 75 67.5741 68.25C74.3278 61.5 74.2536 51.945 74.2536 37.5375C74.2536 23.13 74.2536 13.6125 67.5741 6.825C60.8946 0.0374999 51.3652 0 37.1082 0C22.8513 0 13.4332 0 6.71659 6.7875C0 13.575 0 23.0925 0 37.5Z" fill="url(#paint0_linear)"/>
<path fill-rule="evenodd" clip-rule="evenodd" d="M50.3063 29.4661L28.6298 51.3604C27.0186 52.9878 24.4064 52.9878 22.7952 51.3604C21.1841 49.7331 21.1841 47.0946 22.7952 45.4672L44.4717 23.5729C46.0828 21.9455 48.6951 21.9455 50.3063 23.5729C51.9174 25.2003 51.9174 27.8387 50.3063 29.4661ZM41.3994 20.4698C44.7074 17.1286 50.0706 17.1286 53.3785 20.4698C56.6864 23.8109 56.6864 29.2281 53.3785 32.5692L31.7021 54.4636C28.3941 57.8047 23.0309 57.8047 19.723 54.4636C16.415 51.1224 16.415 45.7053 19.723 42.3641L41.3994 20.4698Z" fill="url(#paint1_linear)"/>
<path d="M19.8594 33.1659C16.5515 29.8247 16.5515 24.4076 19.8594 21.0664C23.1673 17.7253 28.5306 17.7253 31.8385 21.0664L53.5149 42.9607C56.8229 46.3019 56.8229 51.7191 53.5149 55.0602C50.207 58.4014 44.8438 58.4014 41.5358 55.0602L19.8594 33.1659Z" fill="#052DB8"/>
<mask id="path-5-inside-1" fill="white">
<path fill-rule="evenodd" clip-rule="evenodd" d="M50.4426 46.0639L28.7662 24.1696C27.155 22.5422 24.5428 22.5422 22.9316 24.1696C21.3204 25.7969 21.3204 28.4354 22.9316 30.0628L44.608 51.9571C46.2192 53.5845 48.8314 53.5845 50.4426 51.9571C52.0538 50.3297 52.0538 47.6913 50.4426 46.0639ZM19.8593 21.0664C16.5514 24.4076 16.5514 29.8247 19.8593 33.1659L41.5358 55.0602C44.8437 58.4014 50.2069 58.4014 53.5149 55.0602C56.8228 51.7191 56.8228 46.3019 53.5149 42.9607L31.8384 21.0664C28.5305 17.7253 23.1673 17.7253 19.8593 21.0664Z"/>
</mask>
<path d="M28.7662 24.1696L34.4512 18.5411L34.4512 18.5411L28.7662 24.1696ZM50.4426 46.0639L44.7575 51.6924L50.4426 46.0639ZM22.9316 24.1696L28.6167 29.7981L28.6167 29.7981L22.9316 24.1696ZM22.9316 30.0628L28.6167 24.4343L28.6167 24.4343L22.9316 30.0628ZM44.608 51.9571L38.923 57.5856L38.923 57.5856L44.608 51.9571ZM50.4426 51.9571L56.1277 57.5856L56.1277 57.5856L50.4426 51.9571ZM19.8593 33.1659L25.5444 27.5374L25.5444 27.5374L19.8593 33.1659ZM19.8593 21.0664L14.1743 15.4379L14.1743 15.4379L19.8593 21.0664ZM41.5358 55.0602L35.8507 60.6887L35.8507 60.6887L41.5358 55.0602ZM53.5149 42.9607L59.1999 37.3323L59.1999 37.3323L53.5149 42.9607ZM31.8384 21.0664L37.5235 15.4379L37.5235 15.4379L31.8384 21.0664ZM23.0811 29.7981L44.7575 51.6924L56.1277 40.4354L34.4512 18.5411L23.0811 29.7981ZM28.6167 29.7981C27.0973 31.3327 24.6005 31.3327 23.0811 29.7981L34.4512 18.5411C29.7095 13.7517 21.9882 13.7517 17.2465 18.5411L28.6167 29.7981ZM28.6167 24.4343C30.0921 25.9245 30.0921 28.3078 28.6167 29.7981L17.2465 18.5411C12.5488 23.286 12.5488 30.9463 17.2465 35.6913L28.6167 24.4343ZM50.2931 46.3286L28.6167 24.4343L17.2465 35.6913L38.923 57.5856L50.2931 46.3286ZM44.7576 46.3286C46.2769 44.794 48.7737 44.794 50.2931 46.3286L38.923 57.5856C43.6647 62.375 51.386 62.375 56.1277 57.5856L44.7576 46.3286ZM44.7575 51.6924C43.2822 50.2022 43.2821 47.8188 44.7575 46.3286L56.1277 57.5856C60.8254 52.8406 60.8254 45.1804 56.1277 40.4354L44.7575 51.6924ZM25.5444 27.5374C25.4411 27.433 25.3784 27.2959 25.3784 27.1162C25.3784 26.9364 25.4411 26.7993 25.5444 26.6949L14.1743 15.4379C7.77976 21.8967 7.77978 32.3357 14.1743 38.7944L25.5444 27.5374ZM47.2209 49.4317L25.5444 27.5374L14.1743 38.7944L35.8507 60.6887L47.2209 49.4317ZM47.8298 49.4317C47.6524 49.6109 47.3983 49.6109 47.2209 49.4317L35.8507 60.6887C42.2892 67.1919 52.7615 67.1919 59.1999 60.6887L47.8298 49.4317ZM47.8298 48.5892C47.9332 48.6936 47.9958 48.8307 47.9958 49.0105C47.9958 49.1903 47.9332 49.3274 47.8298 49.4317L59.1999 60.6887C65.5945 54.23 65.5944 43.791 59.1999 37.3323L47.8298 48.5892ZM26.1534 26.6949L47.8298 48.5892L59.1999 37.3323L37.5235 15.4379L26.1534 26.6949ZM25.5444 26.6949C25.7218 26.5158 25.976 26.5158 26.1534 26.6949L37.5235 15.4379C31.085 8.93475 20.6127 8.93475 14.1743 15.4379L25.5444 26.6949Z" fill="white" mask="url(#path-5-inside-1)"/>
<defs>
<linearGradient id="paint0_linear" x1="66.5302" y1="5.75991" x2="-0.127686" y2="72.8408" gradientUnits="userSpaceOnUse">
<stop stop-color="#052DB8"/>
<stop offset="0.65625" stop-color="#052EBD"/>
<stop offset="1" stop-color="#042494"/>
</linearGradient>
<linearGradient id="paint1_linear" x1="53.3785" y1="20.4698" x2="19.3864" y2="54.1236" gradientUnits="userSpaceOnUse">
<stop stop-color="white"/>
<stop offset="0.291667" stop-color="#E5E5E5"/>
<stop offset="0.708333" stop-color="#E5E5E5"/>
<stop offset="1" stop-color="white"/>
</linearGradient>
</defs>
</svg>
